<svg xmlns="http://www.w3.org/2000/svg" width="71.812" height="85.821" viewBox="0 0 71.812 85.821">
  <g id="big_report" transform="translate(2.5 2.5)">
    <path id="Path_5" data-name="Path 5" d="M1515.4,1442.933h47.415l19.4,19.4v61.424H1515.4Z" transform="translate(-1515.4 -1442.933)" fill="none" stroke="#2e4450" stroke-width="5"/>
    <line id="Line_11" data-name="Line 11" y2="17.514" transform="translate(45.864 2.4)" fill="none" stroke="#2e4450" stroke-width="5"/>
    <line id="Line_12" data-name="Line 12" x1="18.861" transform="translate(45.864 16.547)" fill="none" stroke="#2e4450" stroke-width="5"/>
    <path id="Rectangle_3" data-name="Rectangle 3" d="M1540,1499.941a1.941,1.941,0,0,1,1.941-1.941h35.493a1.941,1.941,0,0,1,1.941,1.941h0a1.941,1.941,0,0,1-1.941,1.941h-35.493a1.941,1.941,0,0,1-1.941-1.941Z" transform="translate(-1526.357 -1468.461)" fill="#2e4450" stroke="#2e4450" stroke-width="1"/>
    <path id="Rectangle_4" data-name="Rectangle 4" d="M1540,1528.941a1.941,1.941,0,0,1,1.941-1.941h35.493a1.941,1.941,0,0,1,1.941,1.941h0a1.941,1.941,0,0,1-1.941,1.941h-35.493a1.941,1.941,0,0,1-1.941-1.941Z" transform="translate(-1526.357 -1481.378)" fill="#2e4450" stroke="#2e4450" stroke-width="1"/>
    <path id="Rectangle_5" data-name="Rectangle 5" d="M1540,1557.941a1.941,1.941,0,0,1,1.941-1.941h35.493a1.941,1.941,0,0,1,1.941,1.941h0a1.941,1.941,0,0,1-1.941,1.941h-35.493a1.941,1.941,0,0,1-1.941-1.941Z" transform="translate(-1526.357 -1494.296)" fill="#2e4450" stroke="#2e4450" stroke-width="1"/>
  </g>
</svg>
