<svg xmlns="http://www.w3.org/2000/svg" width="17.695" height="41.322" viewBox="0 0 17.695 41.322">
  <g id="medicine_green" transform="translate(1.65 0)">
    <path id="Rectangle_29" data-name="Rectangle 29" d="M8.82,0h0a8.82,8.82,0,0,1,8.82,8.82V19.948a0,0,0,0,1,0,0H0a0,0,0,0,1,0,0V8.82A8.82,8.82,0,0,1,8.82,0Z" transform="translate(-1.595 0)" fill="#89dee2"/>
    <path id="Rectangle_30" data-name="Rectangle 30" d="M8.82,0h0a8.82,8.82,0,0,1,8.82,8.82V19.948a0,0,0,0,1,0,0H0a0,0,0,0,1,0,0V8.82A8.82,8.82,0,0,1,8.82,0Z" transform="translate(15.991 41.322) rotate(180)" fill="#89dee2"/>
  </g>
</svg>
