<svg xmlns="http://www.w3.org/2000/svg" width="320" height="320" viewBox="0 0 320 320">
  <g id="products_icon_light" transform="translate(-801 -1356)">
    <circle id="Ellipse_2" data-name="Ellipse 2" cx="160" cy="160" r="160" transform="translate(801 1356)" fill="#e6fcfb"/>
    <g id="Tablet">
      <path id="Rectangle_2" data-name="Rectangle 2" d="M884.4,1456.858a10,10,0,0,1,9.09-10.833l65.525-5.733a10,10,0,0,1,10.834,9.091l10.223,116.848a10,10,0,0,1-9.09,10.833l-65.525,5.733a10,10,0,0,1-10.833-9.09Z" fill="#89dee2"/>
      <circle id="Ellipse_5" data-name="Ellipse 5" cx="9.32" cy="9.32" r="9.32" transform="translate(936.8 1466.34)" fill="#2e4450"/>
      <circle id="Ellipse_8" data-name="Ellipse 8" cx="9.32" cy="9.32" r="9.32" transform="translate(939.34 1498.55)" fill="#2e4450"/>
      <circle id="Ellipse_10" data-name="Ellipse 10" cx="9.32" cy="9.32" r="9.32" transform="translate(942.73 1533.29)" fill="#2e4450"/>
      <circle id="Ellipse_6" data-name="Ellipse 6" cx="9.32" cy="9.32" r="9.32" transform="translate(902.05 1469.73)" fill="#2e4450"/>
      <circle id="Ellipse_7" data-name="Ellipse 7" cx="9.32" cy="9.32" r="9.32" transform="translate(905.44 1501.94)" fill="#2e4450"/>
      <circle id="Ellipse_9" data-name="Ellipse 9" cx="9.32" cy="9.32" r="9.32" transform="translate(907.98 1536.68)" fill="#2e4450"/>
    </g>
    <g id="Tablet-2" data-name="Tablet">
      <path id="Rectangle_2-2" data-name="Rectangle 2" d="M980.961,1456.323a10,10,0,0,1,13.927-2.456l53.88,37.727a10,10,0,0,1,2.456,13.927L983.947,1601.6a10,10,0,0,1-13.927,2.456l-53.88-37.727a10,10,0,0,1-2.456-13.927Z" fill="#89dee2"/>
      <path id="Ellipse_5-2" data-name="Ellipse 5" d="M1010.161,1517.54a9.322,9.322,0,1,1,13.134-1.149A9.314,9.314,0,0,1,1010.161,1517.54Z" fill="#2e4450"/>
      <path id="Ellipse_8-2" data-name="Ellipse 8" d="M991.408,1543.845a9.322,9.322,0,1,1,13.134-1.149A9.314,9.314,0,0,1,991.408,1543.845Z" fill="#2e4450"/>
      <path id="Ellipse_10-2" data-name="Ellipse 10" d="M971.669,1572.642a9.322,9.322,0,1,1,13.134-1.149A9.314,9.314,0,0,1,971.669,1572.642Z" fill="#2e4450"/>
      <path id="Ellipse_6-2" data-name="Ellipse 6" d="M981.364,1497.8a9.322,9.322,0,1,1,13.134-1.149A9.314,9.314,0,0,1,981.364,1497.8Z" fill="#2e4450"/>
      <path id="Ellipse_7-2" data-name="Ellipse 7" d="M963.26,1524.651a9.322,9.322,0,1,1,13.134-1.149A9.314,9.314,0,0,1,963.26,1524.651Z" fill="#2e4450"/>
      <path id="Ellipse_9-2" data-name="Ellipse 9" d="M942.872,1552.9a9.322,9.322,0,1,1,13.134-1.149A9.314,9.314,0,0,1,942.872,1552.9Z" fill="#2e4450"/>
    </g>
  </g>
</svg>
