<svg xmlns="http://www.w3.org/2000/svg" width="320" height="320" viewBox="0 0 320 320">
  <g id="reports_icon" transform="translate(-1416 -1356)">
    <circle id="Ellipse_3" data-name="Ellipse 3" cx="160" cy="160" r="160" transform="translate(1416 1356)" fill="#2e4450"/>
    <g id="Report">
      <path id="Path_5" data-name="Path 5" d="M1515.4,1442.933h85.5l34.976,34.976v110.758H1515.4Z" fill="none" stroke="#e6fcfb" stroke-width="10"/>
      <line id="Line_11" data-name="Line 11" y2="31.58" transform="translate(1598.1 1447.26)" fill="none" stroke="#e6fcfb" stroke-width="10"/>
      <line id="Line_12" data-name="Line 12" x1="34.01" transform="translate(1598.1 1472.77)" fill="none" stroke="#e6fcfb" stroke-width="10"/>
      <path id="Rectangle_3" data-name="Rectangle 3" d="M1540,1501.5a3.5,3.5,0,0,1,3.5-3.5h64a3.5,3.5,0,0,1,3.5,3.5h0a3.5,3.5,0,0,1-3.5,3.5h-64a3.5,3.5,0,0,1-3.5-3.5Z" fill="#e6fcfb"/>
      <path id="Rectangle_4" data-name="Rectangle 4" d="M1540,1530.5a3.5,3.5,0,0,1,3.5-3.5h64a3.5,3.5,0,0,1,3.5,3.5h0a3.5,3.5,0,0,1-3.5,3.5h-64a3.5,3.5,0,0,1-3.5-3.5Z" fill="#e6fcfb"/>
      <path id="Rectangle_5" data-name="Rectangle 5" d="M1540,1559.5a3.5,3.5,0,0,1,3.5-3.5h64a3.5,3.5,0,0,1,3.5,3.5h0a3.5,3.5,0,0,1-3.5,3.5h-64a3.5,3.5,0,0,1-3.5-3.5Z" fill="#e6fcfb"/>
    </g>
  </g>
</svg>
