<svg xmlns="http://www.w3.org/2000/svg" width="71" height="71" viewBox="0 0 71 71">
  <g id="user" transform="translate(16.531 14.422)">
    <g id="Ellipse_10" data-name="Ellipse 10" transform="translate(-16.531 -14.422)" fill="#e6fcfb" stroke="#2e4450" stroke-width="5">
      <circle cx="35.5" cy="35.5" r="35.5" stroke="none"/>
      <circle cx="35.5" cy="35.5" r="33" fill="none"/>
    </g>
    <g id="Ellipse_9" data-name="Ellipse 9" transform="translate(9.469 -0.422)" fill="#2e4450" stroke="#2e4450" stroke-width="4">
      <circle cx="8.5" cy="8.5" r="8.5" stroke="none"/>
      <circle cx="8.5" cy="8.5" r="6.5" fill="none"/>
    </g>
    <g id="Rectangle_34" data-name="Rectangle 34" transform="translate(0.469 19.578)" fill="#2e4450" stroke="#2e4450" stroke-width="4">
      <path d="M16,0h4A16,16,0,0,1,36,16v0a0,0,0,0,1,0,0H0a0,0,0,0,1,0,0v0A16,16,0,0,1,16,0Z" stroke="none"/>
      <path d="M13.4,2h9.2A11.4,11.4,0,0,1,34,13.4v0a.6.6,0,0,1-.6.6H2.6a.6.6,0,0,1-.6-.6v0A11.4,11.4,0,0,1,13.4,2Z" fill="none"/>
    </g>
  </g>
</svg>
